<svg width="188" height="45" viewBox="0 0 188 45" fill="none" xmlns="http://www.w3.org/2000/svg">
<path d="M3.72 35.288C2.792 35.288 2.04 35 1.464 34.424C0.92 33.848 0.648 33.096 0.648 32.168V4.088C0.648 3.16 0.904 2.44 1.416 1.928C1.96 1.416 2.696 1.16 3.624 1.16H20.472C22.424 1.16 23.4 1.992 23.4 3.656C23.4 5.288 22.424 6.104 20.472 6.104H6.744V15.32H19.512C21.464 15.32 22.44 16.152 22.44 17.816C22.44 19.448 21.464 20.264 19.512 20.264H6.744V32.168C6.744 33.096 6.472 33.848 5.928 34.424C5.384 35 4.648 35.288 3.72 35.288ZM32.2054 35.288C31.3414 35.288 30.6214 35.048 30.0454 34.568C29.5014 34.056 29.2294 33.336 29.2294 32.408V3.752C29.2294 2.824 29.5014 2.12 30.0454 1.64C30.6214 1.16 31.3414 0.919998 32.2054 0.919998C33.0694 0.919998 33.7894 1.16 34.3654 1.64C34.9414 2.12 35.2294 2.824 35.2294 3.752V32.408C35.2294 33.336 34.9414 34.056 34.3654 34.568C33.7894 35.048 33.0694 35.288 32.2054 35.288ZM59.9929 28.568C60.5369 28.568 60.9689 28.776 61.2889 29.192C61.6409 29.608 61.8169 30.168 61.8169 30.872C61.8169 31.864 61.2249 32.696 60.0409 33.368C58.9529 33.976 57.7209 34.472 56.3449 34.856C54.9689 35.208 53.6569 35.384 52.4089 35.384C48.6329 35.384 45.6409 34.296 43.4329 32.12C41.2249 29.944 40.1209 26.968 40.1209 23.192C40.1209 20.792 40.6009 18.664 41.5609 16.808C42.5209 14.952 43.8649 13.512 45.5929 12.488C47.3529 11.464 49.3369 10.952 51.5449 10.952C53.6569 10.952 55.4969 11.416 57.0649 12.344C58.6329 13.272 59.8489 14.584 60.7129 16.28C61.5769 17.976 62.0089 19.976 62.0089 22.28C62.0089 23.656 61.4009 24.344 60.1849 24.344H46.0249C46.2169 26.552 46.8409 28.184 47.8969 29.24C48.9529 30.264 50.4889 30.776 52.5049 30.776C53.5289 30.776 54.4249 30.648 55.1929 30.392C55.9929 30.136 56.8889 29.784 57.8809 29.336C58.8409 28.824 59.5449 28.568 59.9929 28.568ZM51.6889 15.176C50.0569 15.176 48.7449 15.688 47.7529 16.712C46.7929 17.736 46.2169 19.208 46.0249 21.128H56.8729C56.8089 19.176 56.3289 17.704 55.4329 16.712C54.5369 15.688 53.2889 15.176 51.6889 15.176ZM86.8001 30.584C87.3761 31.16 87.6641 31.816 87.6641 32.552C87.6641 33.256 87.3921 33.896 86.8481 34.472C86.3041 35.016 85.6641 35.288 84.9281 35.288C84.1281 35.288 83.4401 34.952 82.8641 34.28L76.0961 26.792L69.3281 34.28C68.7201 34.92 68.0321 35.24 67.2641 35.24C66.5601 35.24 65.9361 34.968 65.3921 34.424C64.8481 33.88 64.5761 33.256 64.5761 32.552C64.5761 31.816 64.8641 31.16 65.4401 30.584L72.4481 22.952L65.8241 15.752C65.2481 15.176 64.9601 14.52 64.9601 13.784C64.9601 13.048 65.2321 12.424 65.7761 11.912C66.3201 11.368 66.9441 11.096 67.6481 11.096C68.4161 11.096 69.1041 11.416 69.7121 12.056L76.0961 19.064L82.4801 12.056C83.0881 11.416 83.7761 11.096 84.5441 11.096C85.2801 11.096 85.9041 11.368 86.4161 11.912C86.9601 12.424 87.2321 13.048 87.2321 13.784C87.2321 14.52 86.9441 15.176 86.3681 15.752L79.7441 22.952L86.8001 30.584ZM113.355 17.528C115.307 18.072 116.811 19.064 117.867 20.504C118.955 21.944 119.499 23.704 119.499 25.784C119.499 28.664 118.459 30.92 116.379 32.552C114.331 34.184 111.499 35 107.883 35H95.499C94.571 35 93.835 34.744 93.291 34.232C92.779 33.72 92.523 33 92.523 32.072V4.088C92.523 3.16 92.779 2.44 93.291 1.928C93.835 1.416 94.571 1.16 95.499 1.16H107.403C110.923 1.16 113.675 1.944 115.659 3.512C117.675 5.048 118.683 7.208 118.683 9.992C118.683 11.784 118.203 13.336 117.243 14.648C116.315 15.96 115.019 16.92 113.355 17.528ZM98.571 15.416H106.395C110.651 15.416 112.779 13.832 112.779 10.664C112.779 9.064 112.251 7.88 111.195 7.112C110.139 6.344 108.539 5.96 106.395 5.96H98.571V15.416ZM107.211 30.2C109.451 30.2 111.083 29.8 112.107 29C113.131 28.2 113.643 26.952 113.643 25.256C113.643 23.56 113.115 22.296 112.059 21.464C111.035 20.632 109.419 20.216 107.211 20.216H98.571V30.2H107.211ZM127.737 35.288C126.873 35.288 126.153 35.048 125.577 34.568C125.033 34.056 124.761 33.336 124.761 32.408V3.752C124.761 2.824 125.033 2.12 125.577 1.64C126.153 1.16 126.873 0.919998 127.737 0.919998C128.601 0.919998 129.321 1.16 129.897 1.64C130.473 2.12 130.761 2.824 130.761 3.752V32.408C130.761 33.336 130.473 34.056 129.897 34.568C129.321 35.048 128.601 35.288 127.737 35.288ZM147.652 35.384C145.252 35.384 143.14 34.888 141.316 33.896C139.524 32.904 138.132 31.48 137.14 29.624C136.148 27.768 135.652 25.608 135.652 23.144C135.652 20.68 136.148 18.536 137.14 16.712C138.132 14.856 139.524 13.432 141.316 12.44C143.14 11.448 145.252 10.952 147.652 10.952C150.052 10.952 152.148 11.448 153.94 12.44C155.764 13.432 157.156 14.856 158.116 16.712C159.108 18.536 159.604 20.68 159.604 23.144C159.604 25.608 159.108 27.768 158.116 29.624C157.156 31.48 155.764 32.904 153.94 33.896C152.148 34.888 150.052 35.384 147.652 35.384ZM147.604 30.728C149.556 30.728 151.044 30.088 152.068 28.808C153.092 27.528 153.604 25.64 153.604 23.144C153.604 20.68 153.092 18.808 152.068 17.528C151.044 16.216 149.572 15.56 147.652 15.56C145.732 15.56 144.244 16.216 143.188 17.528C142.164 18.808 141.652 20.68 141.652 23.144C141.652 25.64 142.164 27.528 143.188 28.808C144.212 30.088 145.684 30.728 147.604 30.728ZM184.43 11.048C185.326 11.048 186.046 11.304 186.59 11.816C187.134 12.328 187.406 13.016 187.406 13.88V32.84C187.406 36.52 186.382 39.304 184.334 41.192C182.286 43.08 179.262 44.024 175.262 44.024C171.774 44.024 168.862 43.368 166.526 42.056C165.342 41.352 164.75 40.504 164.75 39.512C164.75 38.808 164.91 38.248 165.23 37.832C165.582 37.416 166.03 37.208 166.574 37.208C166.862 37.208 167.214 37.272 167.63 37.4C168.046 37.56 168.478 37.736 168.926 37.928C170.078 38.408 171.102 38.776 171.998 39.032C172.926 39.288 173.982 39.416 175.166 39.416C179.358 39.416 181.454 37.368 181.454 33.272V30.2C180.75 31.512 179.726 32.536 178.382 33.272C177.038 33.976 175.502 34.328 173.773 34.328C171.726 34.328 169.902 33.848 168.302 32.888C166.734 31.896 165.502 30.52 164.605 28.76C163.71 27 163.262 24.968 163.262 22.664C163.262 20.36 163.694 18.328 164.558 16.568C165.454 14.776 166.702 13.4 168.302 12.44C169.902 11.448 171.726 10.952 173.773 10.952C175.502 10.952 177.038 11.32 178.382 12.056C179.726 12.76 180.75 13.768 181.454 15.08V13.832C181.454 13 181.726 12.328 182.27 11.816C182.814 11.304 183.534 11.048 184.43 11.048ZM175.358 29.672C177.278 29.672 178.766 29.048 179.822 27.8C180.91 26.552 181.454 24.84 181.454 22.664C181.454 20.456 180.91 18.728 179.822 17.48C178.766 16.232 177.278 15.608 175.358 15.608C173.47 15.608 171.982 16.232 170.894 17.48C169.806 18.728 169.262 20.456 169.262 22.664C169.262 24.84 169.806 26.552 170.894 27.8C171.982 29.048 173.47 29.672 175.358 29.672Z" fill="black"/>
</svg>
